<svg width="15" height="9" viewBox="0 0 15 9" fill="none" xmlns="http://www.w3.org/2000/svg">
<path d="M13.7147 0C13.5501 -2.54913e-06 13.3919 0.0621559 13.2735 0.173347L5.12948 7.50208L1.74892 4.62742C1.68665 4.571 1.61331 4.52734 1.5333 4.49903C1.45328 4.47073 1.36822 4.45835 1.28318 4.46266C1.19814 4.46696 1.11486 4.48784 1.0383 4.52407C0.961746 4.56029 0.893479 4.61112 0.837568 4.67352C0.781657 4.73591 0.739247 4.8086 0.712864 4.88725C0.68648 4.9659 0.676664 5.04891 0.683999 5.13133C0.691335 5.21374 0.715671 5.29388 0.75556 5.36696C0.795449 5.44005 0.850073 5.50459 0.916178 5.55674L4.72302 8.79255C4.84066 8.89276 4.99227 8.9472 5.14872 8.94544C5.30516 8.94367 5.45543 8.88583 5.57064 8.783L14.136 1.07868C14.2328 0.995766 14.3012 0.886183 14.3322 0.764535C14.3632 0.642887 14.3552 0.514955 14.3095 0.39779C14.2637 0.280626 14.1823 0.179792 14.076 0.108737C13.9697 0.0376816 13.8437 -0.000222466 13.7147 7.52376e-05V0Z" fill="#2D2D2D" fill-opacity="0.75"/>
</svg>
