<svg width="28" height="29" viewBox="0 0 28 29" fill="none" xmlns="http://www.w3.org/2000/svg">
<circle cx="14" cy="14.5" r="14" fill="white" fill-opacity="0.3"/>
<path d="M8.29289 18.7929C7.90237 19.1834 7.90237 19.8166 8.29289 20.2071C8.68342 20.5976 9.31658 20.5976 9.70711 20.2071L8.29289 18.7929ZM20 9.5C20 8.94771 19.5523 8.5 19 8.5L10 8.5C9.44772 8.5 9 8.94771 9 9.5C9 10.0523 9.44772 10.5 10 10.5L18 10.5L18 18.5C18 19.0523 18.4477 19.5 19 19.5C19.5523 19.5 20 19.0523 20 18.5L20 9.5ZM9.70711 20.2071L19.7071 10.2071L18.2929 8.79289L8.29289 18.7929L9.70711 20.2071Z" fill="white"/>
</svg>
