<?xml version="1.0" encoding="UTF-8"?>
<!-- Generator: Adobe Illustrator 22.1.0, SVG Export Plug-In . SVG Version: 6.00 Build 0)  -->
<svg version="1.1" id="Layer_1" xmlns="http://www.w3.org/2000/svg" xmlns:xlink="http://www.w3.org/1999/xlink" x="0px" y="0px" viewBox="0 0 1024 1031" style="enable-background:new 0 0 1024 1031;" xml:space="preserve">
<title>icon-01</title>
<path d="M950.8,899.6L782.6,731.5c64.6-74.7,100.1-169.1,100.1-268.8c0-109.9-42.8-213.2-120.5-290.8S581.2,51.3,471.4,51.3  c-109.9,0-213.2,42.8-290.8,120.5c-77.7,77.7-120.5,181-120.5,290.8c0,109.9,42.8,213.2,120.5,290.8  c77.7,77.7,181,120.5,290.8,120.5c90.8,0,177-29.2,248.1-83.1l170.1,170.1c8.4,8.4,19.5,12.7,30.6,12.7s22.1-4.3,30.6-12.7  C967.8,944,967.8,916.6,950.8,899.6L950.8,899.6z M146.6,462.6c0-179.1,145.7-324.7,324.7-324.7c179.1,0,324.7,145.7,324.7,324.7  c0.1,179.1-145.5,324.8-324.5,324.8S146.6,641.7,146.6,462.6L146.6,462.6z"/>
</svg>