<svg width="109" height="27" viewBox="0 0 109 27" fill="none" xmlns="http://www.w3.org/2000/svg">
<path d="M9.816 13.8C9.816 13.416 9.744 13.056 9.6 12.72C9.472 12.368 9.28 12.064 9.024 11.808C8.768 11.552 8.464 11.352 8.112 11.208C7.776 11.048 7.408 10.968 7.008 10.968C6.624 10.968 6.264 11.04 5.928 11.184C5.592 11.328 5.296 11.528 5.04 11.784C4.8 12.04 4.6 12.344 4.44 12.696C4.296 13.032 4.224 13.392 4.224 13.776C4.224 14.16 4.296 14.52 4.44 14.856C4.584 15.192 4.784 15.488 5.04 15.744C5.296 15.984 5.592 16.184 5.928 16.344C6.28 16.488 6.648 16.56 7.032 16.56C7.416 16.56 7.776 16.488 8.112 16.344C8.448 16.2 8.736 16 8.976 15.744C9.232 15.488 9.432 15.192 9.576 14.856C9.736 14.52 9.816 14.168 9.816 13.8ZM4.344 26.064H0V7.608H4.344V8.976C5.272 7.808 6.536 7.224 8.136 7.224C9.016 7.224 9.832 7.4 10.584 7.752C11.352 8.088 12.016 8.552 12.576 9.144C13.136 9.736 13.568 10.432 13.872 11.232C14.192 12.032 14.352 12.888 14.352 13.8C14.352 14.712 14.192 15.56 13.872 16.344C13.568 17.128 13.136 17.816 12.576 18.408C12.032 19 11.384 19.464 10.632 19.8C9.88 20.136 9.064 20.304 8.184 20.304C6.648 20.304 5.368 19.776 4.344 18.72V26.064Z" fill="#2C3646"/>
<path d="M16.8281 7.608H21.1721V9.624C21.6361 8.888 22.2041 8.328 22.8761 7.944C23.5481 7.544 24.3321 7.344 25.2281 7.344C25.3401 7.344 25.4601 7.344 25.5881 7.344C25.7321 7.344 25.8921 7.36 26.0681 7.392V11.544C25.4921 11.256 24.8681 11.112 24.1961 11.112C23.1881 11.112 22.4281 11.416 21.9161 12.024C21.4201 12.616 21.1721 13.488 21.1721 14.64V19.92H16.8281V7.608Z" fill="#2C3646"/>
<path d="M32.2056 13.704C32.2056 14.12 32.2776 14.504 32.4216 14.856C32.5816 15.192 32.7816 15.488 33.0216 15.744C33.2776 16 33.5736 16.2 33.9096 16.344C34.2616 16.488 34.6296 16.56 35.0136 16.56C35.3976 16.56 35.7576 16.488 36.0936 16.344C36.4456 16.2 36.7416 16 36.9816 15.744C37.2376 15.488 37.4376 15.192 37.5816 14.856C37.7416 14.504 37.8216 14.128 37.8216 13.728C37.8216 13.344 37.7416 12.984 37.5816 12.648C37.4376 12.296 37.2376 11.992 36.9816 11.736C36.7416 11.48 36.4456 11.28 36.0936 11.136C35.7576 10.992 35.3976 10.92 35.0136 10.92C34.6296 10.92 34.2616 10.992 33.9096 11.136C33.5736 11.28 33.2776 11.48 33.0216 11.736C32.7816 11.992 32.5816 12.288 32.4216 12.624C32.2776 12.96 32.2056 13.32 32.2056 13.704ZM27.6216 13.656C27.6216 12.744 27.8056 11.896 28.1736 11.112C28.5416 10.312 29.0536 9.624 29.7096 9.048C30.3656 8.456 31.1416 7.992 32.0376 7.656C32.9496 7.32 33.9416 7.152 35.0136 7.152C36.0696 7.152 37.0456 7.32 37.9416 7.656C38.8536 7.976 39.6376 8.432 40.2936 9.024C40.9656 9.6 41.4856 10.296 41.8536 11.112C42.2216 11.912 42.4056 12.8 42.4056 13.776C42.4056 14.752 42.2136 15.648 41.8296 16.464C41.4616 17.264 40.9496 17.96 40.2936 18.552C39.6376 19.128 38.8456 19.576 37.9176 19.896C37.0056 20.216 36.0136 20.376 34.9416 20.376C33.8856 20.376 32.9096 20.216 32.0136 19.896C31.1176 19.576 30.3416 19.12 29.6856 18.528C29.0456 17.936 28.5416 17.232 28.1736 16.416C27.8056 15.584 27.6216 14.664 27.6216 13.656Z" fill="#2C3646"/>
<path d="M49.2503 7.608V14.544C49.2503 16.064 49.9863 16.824 51.4583 16.824C52.9303 16.824 53.6663 16.064 53.6663 14.544V7.608H58.0103V15.384C58.0103 17.048 57.4583 18.296 56.3543 19.128C55.2663 19.96 53.6343 20.376 51.4583 20.376C49.2823 20.376 47.6423 19.96 46.5382 19.128C45.4502 18.296 44.9062 17.048 44.9062 15.384V7.608H49.2503Z" fill="#2C3646"/>
<path d="M64.9929 13.728C64.9929 14.128 65.0649 14.504 65.2089 14.856C65.3529 15.192 65.5449 15.488 65.7849 15.744C66.0409 16 66.3369 16.2 66.6729 16.344C67.0249 16.488 67.4009 16.56 67.8009 16.56C68.1849 16.56 68.5449 16.488 68.8809 16.344C69.2329 16.2 69.5289 16 69.7689 15.744C70.0249 15.488 70.2249 15.192 70.3689 14.856C70.5289 14.52 70.6089 14.16 70.6089 13.776C70.6089 13.392 70.5289 13.032 70.3689 12.696C70.2249 12.344 70.0249 12.04 69.7689 11.784C69.5289 11.528 69.2329 11.328 68.8809 11.184C68.5449 11.04 68.1849 10.968 67.8009 10.968C67.4169 10.968 67.0489 11.04 66.6969 11.184C66.3609 11.328 66.0649 11.528 65.8089 11.784C65.5689 12.04 65.3689 12.336 65.2089 12.672C65.0649 12.992 64.9929 13.344 64.9929 13.728ZM70.4649 0H74.8329V19.92H70.4649V18.552C69.5369 19.72 68.2809 20.304 66.6969 20.304C65.8009 20.304 64.9769 20.136 64.2249 19.8C63.4729 19.464 62.8169 19 62.2569 18.408C61.6969 17.816 61.2569 17.12 60.9369 16.32C60.6329 15.52 60.4809 14.656 60.4809 13.728C60.4809 12.848 60.6249 12.016 60.9129 11.232C61.2169 10.432 61.6409 9.736 62.1849 9.144C62.7289 8.552 63.3769 8.088 64.1289 7.752C64.8969 7.4 65.7369 7.224 66.6489 7.224C68.1849 7.224 69.4569 7.76 70.4649 8.832V0Z" fill="#2C3646"/>
<path d="M82.1331 0V19.92H77.7891V0H82.1331Z" fill="#2C3646"/>
<path d="M89.7999 18.24L83.8479 7.608H88.8879L92.1759 13.92L95.3679 7.608H100.36L90.4719 26.064H85.5999L89.7999 18.24Z" fill="#2C3646"/>
<circle cx="105.5" cy="18.5" r="3.5" fill="#1771F8"/>
</svg>
