<?xml version="1.0" standalone="no"?>
<!DOCTYPE svg PUBLIC "-//W3C//DTD SVG 20010904//EN"
 "http://www.w3.org/TR/2001/REC-SVG-20010904/DTD/svg10.dtd">
<svg version="1.0" xmlns="http://www.w3.org/2000/svg"
 width="805.000000pt" height="805.000000pt" viewBox="0 0 805.000000 805.000000"
 preserveAspectRatio="xMidYMid meet">
<metadata>
Created by potrace 1.11, written by Peter Selinger 2001-2013
</metadata>
<g transform="translate(0.000000,805.000000) scale(0.100000,-0.100000)"
fill="#000000" stroke="none">
<path d="M3788 8045 c-1 -1 -43 -6 -93 -9 -49 -3 -103 -8 -120 -11 -16 -2 -70
-9 -120 -16 -49 -6 -99 -13 -110 -15 -138 -26 -193 -38 -311 -68 -470 -118
-923 -327 -1324 -609 -63 -44 -117 -83 -120 -86 -3 -3 -30 -25 -60 -48 -30
-23 -68 -54 -85 -68 -16 -14 -52 -45 -79 -68 -125 -108 -366 -358 -468 -488
-24 -30 -48 -60 -55 -67 -7 -7 -13 -17 -13 -20 0 -4 -10 -19 -23 -32 -20 -22
-167 -234 -204 -295 -127 -208 -239 -430 -319 -633 -41 -103 -119 -330 -129
-372 -7 -33 -24 -98 -39 -152 -9 -32 -18 -72 -21 -90 -4 -18 -10 -52 -16 -76
-5 -23 -12 -59 -14 -80 -3 -20 -8 -48 -11 -62 -2 -14 -6 -36 -9 -49 -2 -13 -7
-49 -10 -80 -4 -31 -8 -67 -11 -81 -19 -119 -26 -598 -11 -780 10 -117 13
-144 32 -265 3 -16 7 -46 9 -65 22 -155 89 -421 158 -625 170 -500 445 -976
795 -1373 140 -159 368 -376 513 -487 36 -27 67 -52 70 -55 10 -13 268 -188
345 -235 280 -170 605 -317 898 -405 56 -17 109 -33 117 -35 8 -2 51 -12 96
-24 86 -22 207 -48 263 -57 18 -3 43 -7 54 -10 12 -2 39 -6 62 -9 22 -3 58 -8
80 -11 22 -3 51 -7 65 -9 189 -26 772 -27 907 -1 11 3 44 7 74 11 54 6 72 9
139 20 39 6 121 21 160 29 14 3 39 8 55 11 56 11 353 96 422 121 37 14 75 26
83 28 32 8 269 110 377 162 729 353 1352 942 1751 1655 223 398 395 887 457
1294 3 22 7 51 10 65 2 14 7 48 10 75 4 28 8 61 10 75 12 90 19 257 20 460 0
261 -7 363 -40 600 -4 28 -15 96 -20 120 -3 14 -8 41 -11 60 -15 89 -87 358
-129 485 -75 225 -195 495 -320 720 -82 147 -286 444 -381 555 -208 243 -371
406 -564 564 -121 99 -116 95 -175 136 -27 19 -52 38 -55 41 -3 4 -48 34 -100
68 -52 34 -102 66 -110 71 -92 61 -323 184 -462 246 -242 108 -587 223 -781
260 -12 2 -33 6 -47 9 -58 13 -226 42 -285 49 -48 6 -136 16 -190 22 -55 6
-581 14 -587 9z"/>
</g>
</svg>
